<?xml version="1.0" standalone="no"?><!DOCTYPE svg PUBLIC "-//W3C//DTD SVG 1.1//EN" "http://www.w3.org/Graphics/SVG/1.1/DTD/svg11.dtd"><svg t="1614323686527" class="icon" viewBox="0 0 1714 1024" version="1.1" xmlns="http://www.w3.org/2000/svg" p-id="7997" xmlns:xlink="http://www.w3.org/1999/xlink" width="334.765625" height="200"><defs><style type="text/css"></style></defs><path d="M309.64011 30.009742l1098.461635-4.119796 283.337232 479.372877L1687.462064 966.846751 35.09019 1001.210142l-10.19233-482.016215z" fill="#ECF0F6" p-id="7998"></path><path d="M337.454692 416.175196h1045.785389l294.101095 588.249816-1637.988306 7.525178z" fill="#F7F9FC" p-id="7999"></path><path d="M317.641565 47.2986h1086.745219l259.59482 451.748807H1243.976664c-29.171971 0.785857-52.628617 23.909109-53.557357 52.700058V666.792193H536.633765v-115.020914c-0.92874-28.743322-24.290131-51.84276-53.366847-52.747686H54.022204l263.619361-451.748807z m1130.824662-15.550446S1436.464045 0.14717 1379.21554 0.14717H346.265818a91.159432 91.159432 0 0 0-85.848943 48.556448C234.602657 103.237343 8.680626 492.117575 8.680626 492.117575A47.746777 47.746777 0 0 0 0.012383 520.718014v454.749352A50.17579 50.17579 0 0 0 48.592645 1024h1616.603465a50.151976 50.151976 0 0 0 48.223054-48.532634V520.718014c2.143247-8.763498 1.35739-18.027087-2.28613-26.290495L1448.466227 31.748154z" fill="#CFD4E0" p-id="8000"></path></svg>